<?xml version="1.0" encoding="iso-8859-1"?>
<!-- Generator: Adobe Illustrator 19.0.0, SVG Export Plug-In . SVG Version: 6.00 Build 0)  -->
<svg version="1.1" id="Capa_1" xmlns="http://www.w3.org/2000/svg" xmlns:xlink="http://www.w3.org/1999/xlink" x="0px" y="0px"
	 viewBox="0 0 448 448" style="enable-background:new 0 0 448 448;" xml:space="preserve">
<path style="fill:#7720BC;" d="M416,64h-88.8c-4-18.4-20-32-39.2-32H160c-19.2,0-35.2,13.6-39.2,32H32C14.4,64,0,78.4,0,96v288
	c0,17.6,14.4,32,32,32h384c17.6,0,32-14.4,32-32V96C448,78.4,433.6,64,416,64z M160,48h128c10.4,0,19.2,6.4,22.4,16H137.6
	C140.8,54.4,149.6,48,160,48z"/>
<path style="fill:#9F2BFB;" d="M192,224H32c-17.6,0-32-14.4-32-32V96c0-17.6,14.4-32,32-32h384c17.6,0,32,14.4,32,32v96
	c0,17.6-14.4,32-32,32H256H192z"/>
<polygon style="fill:#F3E4FF;" points="192,64 192,320 224,288 256,320 256,64 "/>
<circle style="fill:#E7C9FF;" cx="224" cy="256" r="16"/>
<g>
</g>
<g>
</g>
<g>
</g>
<g>
</g>
<g>
</g>
<g>
</g>
<g>
</g>
<g>
</g>
<g>
</g>
<g>
</g>
<g>
</g>
<g>
</g>
<g>
</g>
<g>
</g>
<g>
</g>
</svg>
